<?xml version="1.0"?>
<svg width="93" height="93" xmlns="http://www.w3.org/2000/svg" xmlns:svg="http://www.w3.org/2000/svg">
 <!-- Created with SVG-edit - https://github.com/SVG-Edit/svgedit-->

 <g class="layer">
  <title>Layer 1</title>
  <ellipse cx="46.500002" cy="46.500002" fill="#0cf973" id="svg_1" rx="45.999999" ry="45.999999" stroke="#000000" stroke-width="0"/>
  <path d="m37.375709,44.9798l18.30986,0l0,4.326138l-18.30986,0l0,-4.326138z" fill="#032a22" id="svg_4" stroke="#000000" stroke-dasharray="null" stroke-linecap="null" stroke-linejoin="null" stroke-width="0"/>
  <path d="m37.345069,44.33693l18.30986,0l0,4.326138l-18.30986,0l0,-4.326138z" fill="#032a22" id="svg_5" stroke="#000000" stroke-dasharray="null" stroke-linecap="null" stroke-linejoin="null" stroke-width="0"/>
  <path d="m219.88147,223.293869c16.706161,-5.252762 15.747574,-4.96698 14.587372,-4.609161c-1.318405,0.406601 -2.746628,0.854889 -4.239822,1.326187c-1.512817,0.477493 -2.998276,0.949417 -4.410416,1.400833c-2.422699,0.774475 -3.351746,1.074097 -4.090683,1.317215c-0.572357,0.188309 -0.999786,0.330048 -1.298462,0.446442c-0.199539,0.077759 -0.332428,0.127335 -0.370728,0.190521c-0.045654,0.075317 -0.020218,0.138199 -0.028442,0.199371c-0.009491,0.070572 -0.025452,0.149612 -0.045135,0.237091c-0.021622,0.09613 -0.054306,0.198318 -0.258347,0.979767c-0.169647,0.649734 -0.352417,1.583893 -0.458923,2.385986c-0.153656,1.157181 -0.246048,1.906769 -0.373764,2.760818c-0.114487,0.765549 -0.239838,1.602234 -0.434448,2.725128c-0.136856,0.789688 -0.284042,1.532761 -0.521332,2.725159c-0.141968,0.713425 -0.287918,1.434616 -0.473892,2.422028c-0.142441,0.756256 -0.320862,1.754471 -0.453751,2.702408c-0.120941,0.862686 -0.250092,1.801224 -0.343445,2.593048c-0.101196,0.858414 -0.102509,1.693527 -0.103317,2.706482c-0.000671,0.830841 -0.067291,1.830338 -0.208176,2.651459l-0.029846,0.881882" fill="none" id="svg_8" stroke="#000000" stroke-dasharray="null" stroke-linecap="null" stroke-linejoin="null" stroke-width="0"/>
  <path d="m37.344589,44.337441l18.30986,0l0,4.326138l-18.30986,0l0,-4.326138z" fill="#032a22" id="svg_16" stroke="#000000" stroke-dasharray="null" stroke-linecap="null" stroke-linejoin="null" stroke-width="0" transform="rotate(90 46.5 46.5005)"/>
 </g>
</svg>