<svg xmlns="http://www.w3.org/2000/svg" width="225" height="225" viewBox="0 0 225 225" version="1.1"><path d="M 108.557 92.223 C 107.549 93.661, 107 96.659, 107 100.723 L 107 107 100.723 107 C 93.537 107, 90 108.814, 90 112.500 C 90 116.186, 93.537 118, 100.723 118 L 107 118 107 124.277 C 107 131.463, 108.814 135, 112.500 135 C 116.186 135, 118 131.463, 118 124.277 L 118 118 124.277 118 C 131.463 118, 135 116.186, 135 112.500 C 135 108.814, 131.463 107, 124.277 107 L 118 107 118 100.723 C 118 93.537, 116.186 90, 112.500 90 C 111.167 90, 109.426 90.982, 108.557 92.223" stroke="none" fill="#04f3c7" fill-rule="evenodd"/><path d="M 94 16.951 C 72.389 21.625, 55.213 31.294, 40.452 47.096 C 13.661 75.778, 7.568 120.556, 25.605 156.218 C 43.836 192.263, 84.038 213.987, 123.513 209.127 C 151.823 205.641, 176.667 190.847, 192.385 168.118 C 203.025 152.730, 210 130.354, 210 111.604 C 210 97.802, 203.998 75.673, 197.223 64.500 C 182.343 39.960, 161.672 24.352, 135.500 17.898 C 123.818 15.016, 104.938 14.586, 94 16.951 M 108.557 92.223 C 107.549 93.661, 107 96.659, 107 100.723 L 107 107 100.723 107 C 93.537 107, 90 108.814, 90 112.500 C 90 116.186, 93.537 118, 100.723 118 L 107 118 107 124.277 C 107 131.463, 108.814 135, 112.500 135 C 116.186 135, 118 131.463, 118 124.277 L 118 118 124.277 118 C 131.463 118, 135 116.186, 135 112.500 C 135 108.814, 131.463 107, 124.277 107 L 118 107 118 100.723 C 118 93.537, 116.186 90, 112.500 90 C 111.167 90, 109.426 90.982, 108.557 92.223" stroke="none" fill="#2c3c4c" fill-rule="evenodd"/></svg>